<svg preserveAspectRatio="xMidYMid meet" data-bbox="-0.026 -0.001 229.741 230.503" viewBox="-0.026 -0.001 229.741 230.503" height="230.53" width="229.67" xmlns="http://www.w3.org/2000/svg" data-type="color" role="img" aria-labelledby="comp-jruox28v-svgtitle">
    <g>
        <path d="M55.79 170.22C47.61 178 39.58 208.31 21 191.46c-12.52-11.23-4.83-25.13 13-28.66 19.67-3.82 7.62-43.64 5.26-60.27C35.49 75.89 1.76 104.19 0 75.6c-.77-13.68 15.51-28.51 32.34-5.76 11.78 16 27.78-8.06 34.57-17.71C79.27 34.34 32 30 51.91 6.11c8.93-10.65 28.68-9 26.94 18-1.1 18.5 27 12.38 36.51 13 25 1.66 41.28 16.27 44.19-9.94 3.88-35.42 53.83 2.74 23.9 15.92-27.84 12.24-8 15.77 1.94 42.48 10.39 28.08-1.87 49.25 24 44.14 38-7.42 15.86 56.74-10.74 21.67-12.43-16.38-27.46 11.42-38.4 22.62-23.69 24.2 23.76 27.58 4.5 50.48-9.56 11.38-26.46 7.06-26.05-16.63.42-22.4-45.44-18.29-74.53-37.09-4.02-2.63-4.5-3.64-8.38-.54zM137.24 92a5.89 5.89 0 01-.85-4.22 5.54 5.54 0 1110.93 1.79 4.37 4.37 0 01-.34 1.26 39.44 39.44 0 017 .49 1.79 1.79 0 001.79-.66 2.14 2.14 0 00.45-1.89 19.32 19.32 0 00-15.47-14.43c-10.45-1.71-20.45 5.77-22.24 16.64a21.22 21.22 0 00-.06 6.41 2.07 2.07 0 001.23 1.61 1.74 1.74 0 001.86-.21 41.71 41.71 0 0115.7-6.79zm-56.32-2.6c0-.29-.12-.57-.14-.93a5.58 5.58 0 1111.12-.84 6.12 6.12 0 01-1.28 4.21 41 41 0 0112.85 7.33 1.73 1.73 0 001.84.36 2 2 0 001.35-1.4 21.17 21.17 0 00.49-6.39c-.84-11.06-10.15-19.31-20.72-18.5a19.32 19.32 0 00-16.66 13 2.16 2.16 0 00.29 1.93 1.94 1.94 0 001.73.81 40.74 40.74 0 019.13.42zm13.2 32.21a20.2 20.2 0 0012.4 17.52c9.93 3.91 21.06-1.25 24.89-11.63a19.55 19.55 0 001.22-6.27 1.91 1.91 0 00-.84-1.73 1.77 1.77 0 00-1.87-.2c-5 2.32-11.69 3.5-18.83 3.24a45.3 45.3 0 01-14.28-3 2 2 0 00-1.87.3 2.08 2.08 0 00-.82 1.77z" fill="#ffffff" fill-rule="evenodd" data-color="1"></path>
    </g>
</svg>