<svg width="326" height="326" viewBox="0 0 326 326" fill="none" xmlns="http://www.w3.org/2000/svg">
<path d="M157.888 194.661C139.078 196.069 68.5188 167.381 68.5188 167.381V227.587C68.5188 227.587 97.6828 261.928 164.474 258.192C231.265 254.456 245.85 227.62 245.85 227.62V167.381C245.85 167.381 176.692 193.253 157.888 194.661Z" fill="#0A2C6D" stroke="black" stroke-width="5.64632"/>
<path d="M157.888 87.4137C142.371 86.0053 14.8981 125.047 12.5444 133.054C10.1907 141.06 143.779 180.082 159.303 182.43C174.827 184.777 301.354 141.484 303.239 133.041C305.123 124.597 173.432 88.8285 157.888 87.4137Z" fill="#0A2C6D" stroke="black" stroke-width="5.64632"/>
<path d="M286.306 154.68L274.57 158.912V197.484C274.57 197.484 266.094 212.063 266.094 222.41C266.094 232.757 281.149 240.758 281.149 240.758C281.149 240.758 295.258 230.88 295.728 222.41C296.197 213.941 286.326 194.661 286.326 194.661L286.306 154.68Z" fill="#F3D948" stroke="black" stroke-width="5.64632"/>
<path d="M172.18 154.257L167.799 143.173C167.147 141.588 163.235 140.617 159.075 140.519C153.553 140.382 146.563 139.535 143.629 136.346C138.452 130.726 149.66 127.759 151.727 127.218C153.794 126.677 165.276 124.362 174.88 128.085C180.604 130.309 179.535 133.445 177.729 135.616C176.516 137.09 177.272 138.733 180.337 139.528L203.809 145.787C207.121 146.667 211.841 146.263 213.902 144.77C220.956 139.678 232.575 127.916 210.172 116.688C180.493 101.816 139.541 110.318 128.894 113.135C118.247 115.952 82.0934 128.131 102.592 145.148C118.24 158.123 151.127 158.227 165.869 157.536C170.022 157.38 172.78 155.828 172.18 154.257Z" fill="#F3D948" stroke="black" stroke-width="5.92668"/>
</svg>
