<svg xmlns="http://www.w3.org/2000/svg" width="2176" height="1247" fill="none" style=""><rect id="backgroundrect" width="100%" height="100%" x="0" y="0" fill="none" stroke="none"/>















<g class="currentLayer" style=""><title>Layer 1</title><g class="" id="svg_16" fill="#ffffff" fill-opacity="1"><path d="M863.2830657958984,556.408203125 C865.2667694091797,553.2035522460938 869.6291351318359,552.4034423828125 872.8021087646484,554.805908203125 C893.0278167724609,569.2268676757812 914.4446868896484,576.4362182617188 935.4644622802734,576.4362182617188 C955.6921844482422,576.4362182617188 975.9175872802734,565.6209716796875 975.9175872802734,547.1953735351562 C975.9175872802734,520.3590698242188 937.4481048583984,518.7567138671875 903.7362518310547,507.54058837890625 C875.5781097412109,497.9286804199219 850.5930633544922,480.3031005859375 850.5930633544922,447.45867919921875 C850.5930633544922,397.38983154296875 895.0114593505859,374.5582580566406 936.2567596435547,374.5582580566406 C966.7957000732422,374.5582580566406 989.7991790771484,383.36993408203125 1007.6458587646484,396.18853759765625 C1010.8189544677734,398.59100341796875 1011.6112518310547,402.99688720703125 1009.2324066162109,405.80242919921875 L992.9721527099609,428.23291015625 C990.5913543701172,431.4375305175781 986.6259613037109,432.2376708984375 983.4529876708984,429.83526611328125 C970.3658294677734,421.0235290527344 955.6921844482422,415.4143371582031 939.0346527099609,415.4143371582031 C916.4284515380859,415.4143371582031 897.3901214599609,426.2294921875 897.3901214599609,444.65521240234375 C897.3901214599609,460.6762390136719 915.6340789794922,465.88433837890625 938.6375579833984,471.892578125 C975.1253509521484,481.5064697265625 1022.7167205810547,497.527587890625 1022.7167205810547,545.994140625 C1022.7167205810547,590.054931640625 981.8665008544922,617.693359375 936.6539764404297,617.693359375 C902.5468597412109,617.693359375 873.1994476318359,607.6783447265625 848.6093597412109,589.65380859375 C845.4363861083984,587.2512817382812 844.6441497802734,583.24658203125 847.0229339599609,580.0419311523438 L863.2830657958984,556.408203125 V556.408203125 z" fill="#ffffff" id="svg_1" class="" fill-opacity="1"/><path d="M1069.118881225586,372.15576171875 V328.89520263671875 C1069.118881225586,324.890380859375 1072.2816009521484,321.685791015625 1076.252914428711,321.685791015625 H1109.176742553711 C1113.148178100586,321.685791015625 1116.317123413086,324.890380859375 1116.317123413086,328.89520263671875 V372.15576171875 C1116.317123413086,376.1605224609375 1119.486068725586,379.365234375 1123.4573822021484,379.365234375 H1183.3377532958984 C1187.309066772461,379.365234375 1190.4781341552734,382.56982421875 1190.4781341552734,386.5745849609375 V414.61419677734375 C1190.4781341552734,418.61895751953125 1187.309066772461,421.8236083984375 1183.3377532958984,421.8236083984375 H1123.4573822021484 C1119.486068725586,421.8236083984375 1116.317123413086,425.02825927734375 1116.317123413086,429.03314208984375 V531.17431640625 C1116.317123413086,543.5897216796875 1117.0989837646484,554.0057373046875 1123.0665130615234,560.8140258789062 C1129.404281616211,568.8257446289062 1142.882553100586,573.2316284179688 1155.1878509521484,573.2316284179688 C1160.3321380615234,573.2316284179688 1167.863510131836,572.8303833007812 1174.221908569336,571.6292724609375 C1177.781723022461,571.2280883789062 1181.3621673583984,573.2316284179688 1182.1441497802734,576.8351440429688 L1188.5027923583984,606.0759887695312 C1189.284652709961,609.6818237304688 1186.918197631836,613.6866455078125 1183.3377532958984,614.48876953125 C1175.003890991211,616.4901733398438 1163.912582397461,617.69140625 1153.603256225586,617.69140625 C1124.6509857177734,617.69140625 1102.8389739990234,607.2772216796875 1088.1465911865234,590.4539184570312 C1074.2774505615234,575.2350463867188 1069.524154663086,553.6046752929688 1069.524154663086,528.3685913085938 V372.15576171875 H1069.118881225586 z" fill="#ffffff" id="svg_2" class="" fill-opacity="1"/><path d="M1260.2767181396484,578.03857421875 C1245.995834350586,560.013916015625 1239.2669525146484,537.1824340820312 1239.2669525146484,497.9286804199219 V385.77459716796875 C1239.2669525146484,381.76763916015625 1242.436019897461,378.56298828125 1246.4073333740234,378.56298828125 H1279.310775756836 C1283.2820892333984,378.56298828125 1286.4510345458984,381.76763916015625 1286.4510345458984,385.77459716796875 V505.5391845703125 C1286.4510345458984,529.5719604492188 1291.2249603271484,542.388427734375 1299.538314819336,552.4034423828125 C1309.8475189208984,564.8209838867188 1326.5152435302734,572.8303833007812 1344.355941772461,572.8303833007812 C1371.723617553711,572.8303833007812 1393.926742553711,556.8092651367188 1407.4253997802734,541.5883178710938 C1408.5984954833984,540.3870849609375 1409.0098724365234,538.7847900390625 1409.0098724365234,536.7813720703125 V386.1734924316406 C1409.0098724365234,382.168701171875 1412.178939819336,378.9641418457031 1416.1504974365234,378.9641418457031 H1449.053695678711 C1453.0250091552734,378.9641418457031 1456.1939544677734,382.168701171875 1456.1939544677734,386.1734924316406 V605.6770629882812 C1456.1939544677734,609.6818237304688 1453.0250091552734,612.8864135742188 1449.053695678711,612.8864135742188 H1417.7347259521484 C1413.763412475586,612.8864135742188 1410.5943450927734,609.6818237304688 1410.5943450927734,605.6770629882812 C1410.5943450927734,600.0678100585938 1404.6475677490234,596.8632202148438 1399.8736419677734,599.6687622070312 C1386.7864837646484,608.4805908203125 1366.5587005615234,617.2922973632812 1342.7713470458984,617.2922973632812 C1309.456527709961,617.2922973632812 1279.7222747802734,602.4722900390625 1260.2767181396484,578.03857421875 V578.03857421875 z" fill="#ffffff" id="svg_3" class="" fill-opacity="1"/><path d="M1693.369125366211,605.2738037109375 C1693.369125366211,599.666748046875 1687.030990600586,596.4620971679688 1682.257064819336,599.666748046875 C1665.198471069336,611.281982421875 1644.188949584961,617.2922973632812 1621.9859466552734,617.2922973632812 C1601.3470306396484,617.2922973632812 1579.5347747802734,611.281982421875 1564.0811614990234,602.0711669921875 C1529.181869506836,581.2411499023438 1504.982894897461,542.388427734375 1504.982894897461,495.92523193359375 C1504.982894897461,449.0589294433594 1529.572982788086,409.80517578125 1564.472152709961,388.97705078125 C1580.3372650146484,379.36309814453125 1599.371322631836,374.1571044921875 1621.183334350586,374.1571044921875 C1642.213607788086,374.1571044921875 1662.832015991211,379.76434326171875 1681.475326538086,391.780517578125 C1686.228744506836,394.5841979980469 1692.175277709961,391.3816223144531 1692.175277709961,385.77252197265625 V302.05682373046875 C1692.175277709961,298.0520935058594 1695.344467163086,294.8474426269531 1699.315902709961,294.8474426269531 H1732.239730834961 C1736.190414428711,294.8474426269531 1739.380111694336,298.0520935058594 1739.380111694336,302.05682373046875 V605.6749267578125 C1739.380111694336,609.6796875 1736.190414428711,612.88427734375 1732.239730834961,612.88427734375 H1700.900131225586 C1696.537826538086,612.4853515625 1693.369125366211,609.2806396484375 1693.369125366211,605.2738037109375 V605.2738037109375 zM1691.784408569336,454.6680603027344 C1691.784408569336,453.06573486328125 1691.393539428711,451.4635009765625 1690.199935913086,450.26220703125 C1675.919418334961,432.2376708984375 1652.913803100586,419.01806640625 1625.9368743896484,419.01806640625 C1581.1192474365234,419.01806640625 1551.775863647461,455.46820068359375 1551.775863647461,495.92523193359375 C1551.775863647461,537.5814208984375 1583.897201538086,572.8303833007812 1628.323959350586,572.8303833007812 C1651.329330444336,572.8303833007812 1674.725814819336,561.6141967773438 1690.199935913086,541.586181640625 C1690.981918334961,540.3849487304688 1691.784408569336,538.7826538085938 1691.784408569336,537.1802978515625 V454.6680603027344 V454.6680603027344 z" fill="#ffffff" id="svg_4" class="" fill-opacity="1"/><path d="M1829.797103881836,677.7752075195312 L1868.667709350586,591.256103515625 C1869.449691772461,589.252685546875 1869.449691772461,587.2512817382812 1868.667709350586,585.2479858398438 L1775.863754272461,388.9791564941406 C1773.476791381836,384.1721496582031 1777.057113647461,378.9641418457031 1782.201400756836,378.9641418457031 H1817.100814819336 C1819.878890991211,378.9641418457031 1822.265853881836,380.56640625 1823.459213256836,382.970947265625 L1887.311019897461,519.1578369140625 C1889.677474975586,524.764892578125 1897.620346069336,524.3638305664062 1899.986557006836,518.7567138671875 L1958.302963256836,382.970947265625 C1959.475814819336,380.56640625 1961.862777709961,378.56298828125 1964.640609741211,378.56298828125 H1998.758041381836 C2003.902328491211,378.56298828125 2007.071273803711,383.77105712890625 2005.095932006836,388.17694091796875 L1877.392562866211,682.5822143554688 C1876.199203491211,684.984619140625 1873.811996459961,686.9880981445312 1871.034164428711,686.9880981445312 H1836.546371459961 C1830.990707397461,687.3892211914062 1827.410140991211,682.1810913085938 1829.797103881836,677.7752075195312 z" fill="#ffffff" id="svg_5" class="" fill-opacity="1"/><path d="M999.3182220458984,797.1387939453125 C998.9211273193359,801.1436157226562 995.3509979248047,803.5481567382812 991.3857269287109,803.1470947265625 C988.2125091552734,802.745849609375 984.2474822998047,802.745849609375 980.2800140380859,802.745849609375 C956.4843597412109,802.745849609375 931.4992523193359,818.7691650390625 918.4098968505859,840.3994750976562 C917.6177825927734,841.6007690429688 917.2206268310547,842.8019409179688 917.2206268310547,844.003173828125 V989.40283203125 C917.2206268310547,993.4097900390625 914.0475311279297,996.6123046875 910.0822601318359,996.6123046875 H877.1646575927734 C873.1994476318359,996.6123046875 870.0262298583984,993.4097900390625 870.0262298583984,989.40283203125 V769.9015502929688 C870.0262298583984,765.896728515625 873.1994476318359,762.692138671875 877.1646575927734,762.692138671875 H908.8928070068359 C912.8582000732422,762.692138671875 916.0312347412109,765.896728515625 916.0312347412109,769.9015502929688 V772.303955078125 C916.0312347412109,778.3141479492188 922.7744598388672,781.5167846679688 927.5320281982422,777.5120239257812 C940.6212615966797,766.6968994140625 960.4495697021484,757.8850708007812 985.8317718505859,757.8850708007812 C989.0047454833984,757.8850708007812 992.9721527099609,757.8850708007812 996.9374847412109,758.2861328125 C1000.9026947021484,758.6851806640625 1003.6806488037109,762.2908935546875 1003.2834320068359,766.295654296875 L999.3182220458984,797.1387939453125 V797.1387939453125 z" fill="#ffffff" id="svg_6" class="" fill-opacity="1"/><path d="M1147.2449798583984,758.2861328125 C1216.2615814208984,758.2861328125 1267.807846069336,810.3564453125 1267.807846069336,880.0521850585938 C1267.807846069336,949.748046875 1216.2615814208984,1001.8203125 1147.2449798583984,1001.8203125 C1078.2488861083984,1001.8203125 1026.6820526123047,949.748046875 1026.6820526123047,880.0521850585938 C1026.6820526123047,810.3564453125 1078.639877319336,758.2861328125 1147.2449798583984,758.2861328125 zM1147.2449798583984,956.9595947265625 C1190.4781341552734,956.9595947265625 1220.624008178711,922.5107421875 1220.624008178711,880.0521850585938 C1220.624008178711,837.595947265625 1190.4781341552734,803.1470947265625 1147.2449798583984,803.1470947265625 C1104.0118255615234,803.1470947265625 1073.886459350586,837.595947265625 1073.886459350586,880.0521850585938 C1073.886459350586,922.5107421875 1104.4234466552734,956.9595947265625 1147.2449798583984,956.9595947265625 z" fill="#ffffff" id="svg_7" class="" fill-opacity="1"/><path d="M1428.825912475586,758.2861328125 C1497.8426361083984,758.2861328125 1549.409408569336,810.3564453125 1549.409408569336,880.0521850585938 C1549.409408569336,949.748046875 1497.8426361083984,1001.8203125 1428.825912475586,1001.8203125 C1359.8299407958984,1001.8203125 1308.2630462646484,949.748046875 1308.2630462646484,880.0521850585938 C1308.2630462646484,810.3564453125 1359.8299407958984,758.2861328125 1428.825912475586,758.2861328125 zM1428.825912475586,956.9595947265625 C1472.059066772461,956.9595947265625 1502.2049407958984,922.5107421875 1502.2049407958984,880.0521850585938 C1502.2049407958984,837.595947265625 1472.059066772461,803.1470947265625 1428.825912475586,803.1470947265625 C1385.6133880615234,803.1470947265625 1355.467514038086,837.595947265625 1355.467514038086,880.0521850585938 C1355.467514038086,922.5107421875 1385.6133880615234,956.9595947265625 1428.825912475586,956.9595947265625 z" fill="#ffffff" id="svg_8" class="" fill-opacity="1"/><path d="M1639.0240325927734,770.3025512695312 C1639.0240325927734,776.3107299804688 1645.3824310302734,779.515380859375 1649.744857788086,776.3107299804688 C1662.832015991211,767.4990234375 1683.841781616211,758.2861328125 1707.238265991211,758.2861328125 C1738.968246459961,758.2861328125 1765.554428100586,771.5038452148438 1784.979721069336,791.9328002929688 C1787.757553100586,794.736328125 1792.119857788086,794.736328125 1794.897689819336,792.3319091796875 C1815.125228881836,773.5072021484375 1839.715316772461,758.6873168945312 1878.586166381836,758.6873168945312 C1911.900863647461,758.6873168945312 1942.026107788086,773.5072021484375 1961.471664428711,797.9411010742188 C1975.752426147461,815.9656372070312 1982.892807006836,838.7971801757812 1982.892807006836,878.0509033203125 V990.2052001953125 C1982.892807006836,994.2099609375 1979.703598022461,997.4144287109375 1975.752426147461,997.4144287109375 H1942.437728881836 C1938.466293334961,997.4144287109375 1935.297348022461,994.2099609375 1935.297348022461,990.2052001953125 V870.4403076171875 C1935.297348022461,846.4076538085938 1930.544174194336,833.5890502929688 1921.798568725586,823.5761108398438 C1911.489486694336,811.15869140625 1895.624008178711,803.1470947265625 1878.174545288086,803.1470947265625 C1846.464828491211,803.1470947265625 1825.043685913086,818.7691650390625 1809.960433959961,833.5890502929688 C1808.376205444336,835.1913452148438 1807.594223022461,837.595947265625 1807.985092163086,839.9984130859375 C1809.960433959961,850.4124755859375 1811.154037475586,862.829833984375 1811.154037475586,877.6498413085938 V989.8038330078125 C1811.154037475586,993.8087158203125 1807.985092163086,997.013427734375 1804.013656616211,997.013427734375 H1771.110580444336 C1767.138900756836,997.013427734375 1763.969955444336,993.8087158203125 1763.969955444336,989.8038330078125 V870.0392456054688 C1763.969955444336,846.006591796875 1759.196029663086,833.1879272460938 1750.471176147461,823.1749877929688 C1740.162094116211,810.757568359375 1723.103256225586,802.748046875 1705.262924194336,802.748046875 C1677.894760131836,802.748046875 1655.300765991211,818.7691650390625 1641.411117553711,833.9901123046875 C1640.217514038086,835.1913452148438 1639.826644897461,836.7936401367188 1639.826644897461,838.7971801757812 V989.40283203125 C1639.826644897461,993.4097900390625 1636.6575775146484,996.6143798828125 1632.686264038086,996.6143798828125 H1599.762435913086 C1595.811508178711,996.6143798828125 1592.6219329833984,993.4097900390625 1592.6219329833984,989.40283203125 V769.9015502929688 C1592.6219329833984,765.896728515625 1595.811508178711,762.692138671875 1599.762435913086,762.692138671875 H1631.492660522461 C1635.8550872802734,763.0931396484375 1639.0240325927734,766.2977905273438 1639.0240325927734,770.3025512695312 V770.3025512695312 z" fill="#ffffff" id="svg_9" class="" fill-opacity="1"/><path d="M434.9564971923828,831.1865844726562 C322.7171173095703,831.1865844726562 231.49952697753906,739.058349609375 231.49952697753906,625.702880859375 C231.49952697753906,512.3475341796875 322.7171173095703,420.2213134765625 434.9564971923828,420.2213134765625 C547.1938323974609,420.2213134765625 638.4112396240234,512.3475341796875 638.4112396240234,625.702880859375 C638.4112396240234,739.058349609375 547.1938323974609,831.1865844726562 434.9564971923828,831.1865844726562 zM434.9564971923828,486.311279296875 C358.8078155517578,486.311279296875 296.9397735595703,548.7977294921875 296.9397735595703,625.702880859375 C296.9397735595703,702.6101684570312 358.8078155517578,765.0944213867188 434.9564971923828,765.0944213867188 C511.10316467285156,765.0944213867188 572.9732513427734,702.6101684570312 572.9732513427734,625.702880859375 C572.9732513427734,548.7977294921875 510.7060089111328,486.311279296875 434.9564971923828,486.311279296875 z" fill="#ffffff" id="svg_10" class="" fill-opacity="1"/><path d="M434.95448303222656,350.1244201660156 C416.71253967285156,350.1244201660156 402.0368194580078,335.3045349121094 402.0368194580078,316.8788757324219 V266.8099060058594 C402.0368194580078,248.38427734375 416.71253967285156,233.5643310546875 434.95448303222656,233.5643310546875 C453.1983184814453,233.5643310546875 467.87416076660156,248.38427734375 467.87416076660156,266.8099060058594 V316.8788757324219 C467.47706604003906,335.3045349121094 452.80323791503906,350.1244201660156 434.95448303222656,350.1244201660156 z" fill="#ffffff" id="svg_11" class="" fill-opacity="1"/><path d="M513.4839019775391,927.317626953125 H356.42909240722656 C341.3581085205078,927.317626953125 329.06520080566406,914.9000244140625 329.06520080566406,899.6790771484375 C329.06520080566406,884.4601440429688 341.3581085205078,872.0427856445312 356.42909240722656,872.0427856445312 H513.4839019775391 C528.5549163818359,872.0427856445312 540.8477630615234,884.4601440429688 540.8477630615234,899.6790771484375 C540.8477630615234,914.9000244140625 528.5549163818359,927.317626953125 513.4839019775391,927.317626953125 z" fill="#ffffff" id="svg_12" class="" fill-opacity="1"/><path d="M486.5131378173828,1013.4356689453125 H383.39772033691406 C368.32691955566406,1013.4356689453125 356.0319366455078,1001.018310546875 356.0319366455078,985.797119140625 C356.0319366455078,970.5782470703125 368.32691955566406,958.1607666015625 383.39772033691406,958.1607666015625 H486.5131378173828 C501.58399963378906,958.1607666015625 513.8790435791016,970.5782470703125 513.8790435791016,985.797119140625 C513.8790435791016,1001.018310546875 501.58399963378906,1013.4356689453125 486.5131378173828,1013.4356689453125 z" fill="#ffffff" id="svg_13" class="" fill-opacity="1"/><path d="M232.6889190673828,439.44921875 C223.17189025878906,439.44921875 214.04994201660156,435.4422912597656 207.7039337158203,427.8318786621094 L177.95924377441406,392.58282470703125 C166.4585723876953,378.5650634765625 168.04505920410156,357.73492431640625 181.9245147705078,346.1196594238281 C195.8059844970703,334.50433349609375 216.42872619628906,336.106689453125 227.93141174316406,350.1244201660156 L257.67604064941406,385.37335205078125 C269.1767120361328,399.3931884765625 267.59022521972656,420.2213134765625 253.70875549316406,431.83868408203125 C247.75990295410156,437.0445861816406 240.2243194580078,439.44921875 232.6889190673828,439.44921875 z" fill="#ffffff" id="svg_14" class="" fill-opacity="1"/><path d="M636.8248748779297,439.44921875 C629.2894134521484,439.44921875 621.7540130615234,437.0445861816406 615.8050384521484,431.83868408203125 C601.9234466552734,420.2213134765625 600.3370208740234,399.3931884765625 611.8397674560547,385.37335205078125 L641.5843963623047,350.1244201660156 C653.0849456787109,336.106689453125 673.7078094482422,334.50433349609375 687.5892791748047,346.1196594238281 C701.4708099365234,357.73492431640625 703.0572967529297,378.5650634765625 691.5566864013672,392.58282470703125 L661.8099822998047,427.8318786621094 C655.4659271240234,435.4422912597656 646.3439178466797,439.44921875 636.8248748779297,439.44921875 z" fill="#ffffff" id="svg_15" class="" fill-opacity="1"/></g></g></svg>